<mxfile host="app.diagrams.net" modified="2024-03-07T02:29:03.927Z" agent="Mozilla/5.0 (Windows NT 10.0; Win64; x64) AppleWebKit/537.36 (KHTML, like Gecko) Chrome/122.0.0.0 Safari/537.36" etag="cZkBMQO5YZ52Cdg2Q2tR" version="24.0.2" type="device">
  <diagram name="페이지-1" id="UBBNLYGozEBp9tFmagYv">
    <mxGraphModel dx="2117" dy="603" grid="1" gridSize="10" guides="1" tooltips="1" connect="1" arrows="1" fold="1" page="1" pageScale="1" pageWidth="827" pageHeight="1169" math="0" shadow="0">
      <root>
        <mxCell id="0" />
        <mxCell id="1" parent="0" />
        <mxCell id="A6ql1aUMGTMdomMEJBgA-1" value="영화" style="rounded=0;whiteSpace=wrap;html=1;" vertex="1" parent="1">
          <mxGeometry x="280" y="220" width="120" height="60" as="geometry" />
        </mxCell>
        <mxCell id="A6ql1aUMGTMdomMEJBgA-2" value="" style="rhombus;whiteSpace=wrap;html=1;" vertex="1" parent="1">
          <mxGeometry x="110" y="210" width="80" height="80" as="geometry" />
        </mxCell>
        <mxCell id="A6ql1aUMGTMdomMEJBgA-3" value="" style="endArrow=none;html=1;rounded=0;entryX=0;entryY=0.5;entryDx=0;entryDy=0;exitX=1;exitY=0.5;exitDx=0;exitDy=0;" edge="1" parent="1" source="A6ql1aUMGTMdomMEJBgA-2" target="A6ql1aUMGTMdomMEJBgA-1">
          <mxGeometry width="50" height="50" relative="1" as="geometry">
            <mxPoint x="140" y="340" as="sourcePoint" />
            <mxPoint x="190" y="290" as="targetPoint" />
          </mxGeometry>
        </mxCell>
        <mxCell id="A6ql1aUMGTMdomMEJBgA-4" value="사용자" style="rounded=0;whiteSpace=wrap;html=1;" vertex="1" parent="1">
          <mxGeometry x="-120" y="220" width="120" height="60" as="geometry" />
        </mxCell>
        <mxCell id="A6ql1aUMGTMdomMEJBgA-5" value="" style="endArrow=none;html=1;rounded=0;entryX=0;entryY=0.5;entryDx=0;entryDy=0;exitX=1;exitY=0.5;exitDx=0;exitDy=0;" edge="1" parent="1" source="A6ql1aUMGTMdomMEJBgA-4" target="A6ql1aUMGTMdomMEJBgA-2">
          <mxGeometry width="50" height="50" relative="1" as="geometry">
            <mxPoint x="50" y="350" as="sourcePoint" />
            <mxPoint x="100" y="300" as="targetPoint" />
          </mxGeometry>
        </mxCell>
        <mxCell id="A6ql1aUMGTMdomMEJBgA-6" value="감독" style="rounded=0;whiteSpace=wrap;html=1;" vertex="1" parent="1">
          <mxGeometry x="280" y="480" width="120" height="60" as="geometry" />
        </mxCell>
        <mxCell id="A6ql1aUMGTMdomMEJBgA-7" value="배우" style="rounded=0;whiteSpace=wrap;html=1;" vertex="1" parent="1">
          <mxGeometry x="280" y="60" width="120" height="60" as="geometry" />
        </mxCell>
        <mxCell id="A6ql1aUMGTMdomMEJBgA-8" value="운영자" style="rounded=0;whiteSpace=wrap;html=1;" vertex="1" parent="1">
          <mxGeometry x="-430" y="220" width="120" height="60" as="geometry" />
        </mxCell>
        <mxCell id="A6ql1aUMGTMdomMEJBgA-9" value="댓글" style="rounded=0;whiteSpace=wrap;html=1;" vertex="1" parent="1">
          <mxGeometry x="-120" y="480" width="120" height="60" as="geometry" />
        </mxCell>
        <mxCell id="A6ql1aUMGTMdomMEJBgA-10" value="리뷰" style="rounded=0;whiteSpace=wrap;html=1;" vertex="1" parent="1">
          <mxGeometry x="-120" y="60" width="120" height="60" as="geometry" />
        </mxCell>
        <mxCell id="A6ql1aUMGTMdomMEJBgA-12" value="" style="endArrow=none;html=1;rounded=0;entryX=0.5;entryY=1;entryDx=0;entryDy=0;" edge="1" parent="1" target="A6ql1aUMGTMdomMEJBgA-4">
          <mxGeometry width="50" height="50" relative="1" as="geometry">
            <mxPoint x="-60" y="360" as="sourcePoint" />
            <mxPoint x="60" y="290" as="targetPoint" />
          </mxGeometry>
        </mxCell>
        <mxCell id="A6ql1aUMGTMdomMEJBgA-13" value="사용" style="rhombus;whiteSpace=wrap;html=1;" vertex="1" parent="1">
          <mxGeometry x="-100" y="340" width="80" height="80" as="geometry" />
        </mxCell>
        <mxCell id="A6ql1aUMGTMdomMEJBgA-14" value="" style="endArrow=none;html=1;rounded=0;exitX=0.5;exitY=0;exitDx=0;exitDy=0;entryX=0.5;entryY=1;entryDx=0;entryDy=0;" edge="1" parent="1" source="A6ql1aUMGTMdomMEJBgA-9" target="A6ql1aUMGTMdomMEJBgA-13">
          <mxGeometry width="50" height="50" relative="1" as="geometry">
            <mxPoint x="90" y="340" as="sourcePoint" />
            <mxPoint x="140" y="290" as="targetPoint" />
          </mxGeometry>
        </mxCell>
      </root>
    </mxGraphModel>
  </diagram>
</mxfile>
